# xmcd
#
# Track frame offsets:
#	150
#	10425
#	27116
#	47099
#	59938
#	78910
#	97090
#	116226
#	134076
#	157468
#	175108
#	199183
#	218383
#	233861
#	246675
#	263363
#	283010
#	296848
#	315194
#	334469
#
# Disc length: 4623 seconds
#
# Revision: 1
# Processed by: cddbd v1.5.2PL0 Copyright (c) Steve Scherf et al.
# Submitted via: audiograbber 1.83.01
#
DISCID=3a120d14
DTITLE=Meie Mees - Parimad 1
DYEAR=2008
DGENRE=Cover
TTITLE0=Oo, Susanna
TTITLE1=Sexpomm
TTITLE2=16 Kannu
TTITLE3=Kõvamees
TTITLE4=Kõnnin Katusel
TTITLE5=Kaunimad Jalad
TTITLE6=Tormituuled Koos Nexusega
TTITLE7=Delilah
TTITLE8=Metsakohin
TTITLE9=Said Mis Tahtsid Koos Tanel Padariga
TTITLE10=Slaavi Pop
TTITLE11=In The Army Now (Sõjaväes)
TTITLE12=Tshingis Khaan
TTITLE13=Prostituudi Laul
TTITLE14=Linda
TTITLE15=Settekaevu Sultan
TTITLE16=Katjakene
TTITLE17=Linnade Laul
TTITLE18=Rockk'enn'roll Ja Kasatðok Koos Anne Veskiga
TTITLE19=Turvamees
EXTD=
EXTT0=
EXTT1=
EXTT2=
EXTT3=
EXTT4=
EXTT5=
EXTT6=
EXTT7=
EXTT8=
EXTT9=
EXTT10=
EXTT11=
EXTT12=
EXTT13=
EXTT14=
EXTT15=
EXTT16=
EXTT17=
EXTT18=
EXTT19=
PLAYORDER=
